<?xml version="1.0" encoding="utf-8"?>
<!-- Uploaded to: SVG Repo, www.svgrepo.com, Generator: SVG Repo Mixer Tools -->
<svg fill="#ffffff" width="800px" height="800px" viewBox="0 0 32 32" version="1.1" xmlns="http://www.w3.org/2000/svg">
<title>center-text-bubble</title>
<path d="M0 20q0 2.496 1.76 4.256t4.256 1.76h5.984l4 5.984 4-5.984h6.016q2.464 0 4.224-1.76t1.76-4.256v-13.984q0-2.496-1.76-4.256t-4.224-1.76h-20q-2.496 0-4.256 1.76t-1.76 4.256v13.984zM4 20v-13.984q0-0.832 0.576-1.408t1.44-0.608h20q0.8 0 1.408 0.608t0.576 1.408v13.984q0 0.832-0.576 1.44t-1.408 0.576h-7.328l-2.688 4-2.656-4h-7.328q-0.832 0-1.44-0.576t-0.576-1.44zM8 18.016h8v-2.016h-8v2.016zM8 14.016h16v-2.016h-16v2.016zM8 10.016h16v-2.016h-16v2.016z"></path>
</svg>