<svg xmlns="http://www.w3.org/2000/svg" viewBox="0 0 148.43 120.6"><title>YouTube Kids vector</title><path d="M583.78,520.2c-.09-7.14-4.15-41-6.1-46.21-1.26-3.39-3.93-9.58-8.87-13.35-6.33-4.82-11.49-5.7-18.07-5.83-4.59-.09-78.43,9.42-87.37,12.76a43.55,43.55,0,0,0-16,9.82c-6.68,6.71-8,13.23-6.91,24.69,1,10.39,5.76,44.86,8.14,52,2.64,7.88,7.49,13.93,15.51,14.79,24.45,2.67,30.21-11,87-10.84,17.22,0,25.77-7.6,29.34-14.25C584.64,535.94,583.85,525.65,583.78,520.2Z" transform="translate(-437.78 -451.7)" style="fill:red"/><path d="M548.9,457.43H549c6.29.12,11.21,1,17.24,5.56,4.72,3.6,7.27,9.5,8.46,12.74,1.86,5,5.73,37.28,5.82,44.09.07,5.19.84,15-3.16,22.48-3.38,6.33-11.53,13.59-27.87,13.59h-.86c-48.74,0-57.71,10.67-76.45,10.67a56.4,56.4,0,0,1-5.85-.32c-7.64-.84-12.27-6.6-14.79-14.12-2.28-6.8-6.84-39.69-7.77-49.6-1-10.94.21-17.16,6.59-23.56a41.27,41.27,0,0,1,15.29-9.36C474.09,466.43,543.92,457.43,548.9,457.43Zm0-5.73c-3.16,0-23.8,2.56-41.08,4.94s-39,5.64-44.15,7.57a47,47,0,0,0-17.3,10.67c-8.28,8.3-9.28,16.93-8.25,28.18.81,8.72,5.41,43.06,8.05,50.91,3.55,10.6,10.48,17,19.51,18a59.3,59.3,0,0,0,6.46.36c7.92,0,14.19-1.71,21.46-3.69,11.43-3.11,25.65-7,55-7h.86c7.19,0,24.79-1.62,32.8-16.58,4.28-8,4-17.72,3.89-23.52q0-1,0-1.78c-.09-6.92-4-40.09-6.18-46-2.53-6.86-6-12-10.36-15.3-7.07-5.39-13.08-6.56-20.49-6.71h-.19Z" transform="translate(-437.78 -451.7)" style="fill:#282828"/><path d="M534.11,510.94l-.54.34c-1.43,1-2.85,2-4.27,2.94l-22.44,15.51c-1.63,1.25-4.7,3.22-5.86,2.6s-1.58-4.9-1.86-7l-.07-.46c-.34-2.49-3.1-26.23-3.42-28.84-.09-.74-.54-3.45.29-4.07s3.14.09,3.9.34c4.42,1.41,26.54,9.24,33.42,12.76.2.11.42.2.65.3,1,.42,2.33,1,2.36,2.67S535.07,510.34,534.11,510.94Z" transform="translate(-437.78 -451.7)" style="fill:#fff"/><path d="M498.73,495.47c7.68,2.63,25.45,9,33.82,12.8l-3,2.09L503,528.72l-.12.08-.11.08a0,0,0,0,0,0,0c0-.19,0-.35-.07-.5l-.12-.92-.08-.57c-.29-2.1-2.12-17.7-3.21-27C499.05,498.19,498.88,496.67,498.73,495.47Zm-4.3-7a2.06,2.06,0,0,0-1.23.31c-1,.73-.45,3.95-.34,4.82.37,3.09,3.65,31.21,4,34.16l.07.54c.33,2.47.81,7.53,2.2,8.27a1.46,1.46,0,0,0,.66.15c1.66,0,4.62-1.93,6.29-3.22L532.7,515.1q2.53-1.76,5.07-3.48l.65-.4c1.15-.7,2.57-1.58,2.55-3.45s-1.63-2.65-2.8-3.15c-.27-.11-.52-.23-.76-.35-8.14-4.16-34.35-13.43-39.58-15.12A12.31,12.31,0,0,0,494.43,488.42Z" transform="translate(-437.78 -451.7)" style="fill:#282828"/></svg>